<svg width="18" height="21" viewBox="0 0 18 21" fill="none" xmlns="http://www.w3.org/2000/svg">
<path d="M16.4163 19.25L15.9634 18.1126C15.7344 17.5354 15.3785 17.0178 14.923 16.5959L14.8402 16.5196C14.1233 15.8545 13.1812 15.4844 12.2029 15.4844H5.71467C4.73638 15.4844 3.79432 15.8545 3.07613 16.5183L2.99331 16.5959C2.53781 17.0178 2.18325 17.5354 1.95291 18.1126L1.5 19.25" stroke="white" stroke-width="2.25" stroke-linecap="round" stroke-linejoin="round"/>
<path d="M12.1611 2.57655C13.9299 4.34529 13.9299 7.21296 12.1611 8.98169C10.3924 10.7504 7.52473 10.7504 5.756 8.98169C3.98726 7.21296 3.98726 4.34529 5.756 2.57655C7.52473 0.807816 10.3924 0.807816 12.1611 2.57655" stroke="white" stroke-width="2.25" stroke-linecap="round" stroke-linejoin="round"/>
</svg>
